<?xml version="1.0" encoding="UTF-8" standalone="no"?>
<!-- Created with Inkscape (http://www.inkscape.org/) -->

<svg
   version="1.1"
   id="svg1"
   width="2995"
   height="3201"
   viewBox="0 0 2994.9999 3201"
   xml:space="preserve"
   xmlns:xlink="http://www.w3.org/1999/xlink"
   xmlns="http://www.w3.org/2000/svg"
   xmlns:svg="http://www.w3.org/2000/svg"><defs
     id="defs1"><clipPath
       clipPathUnits="userSpaceOnUse"
       id="clipPath3"><rect
         style="opacity:0.71;fill:#ffff00;stroke:#ffff00;stroke-width:18.09;stroke-dasharray:none"
         id="rect3"
         width="3184.6372"
         height="3764.4824"
         x="-174.78702"
         y="-276.43253"
         ry="16.551285" /></clipPath></defs><g
     id="root"
     transform="translate(5.9999997)"><g
       id="g1"
       transform="translate(-15.06799,-58.561245)"><image
         width="2995"
         height="3201"
         preserveAspectRatio="none"
         xlink:href="region1.png"
         id="image1"
         x="9.0679903"
         y="58.561245"
         style="display:inline"
         clip-path="url(#clipPath3)" /></g><g
       id="g2"
       transform="matrix(1.0586896,0,0,1.0586896,-122.08398,-205.17357)"
       style="stroke-width:18.1063;stroke-dasharray:none"><ellipse
         style="opacity:0.71;fill:none;stroke:#ffff00;stroke-width:21.4123;stroke-dasharray:none"
         id="port174"
         cx="2609.0603"
         cy="2855.293"
         rx="55.558807"
         ry="55.558826" /><ellipse
         style="opacity:0.71;fill:none;stroke:#ffff00;stroke-width:21.0642;stroke-dasharray:none"
         id="port2"
         cx="1852.1633"
         cy="2290.511"
         rx="54.655643"
         ry="54.655666" /><ellipse
         style="opacity:0.71;fill:none;stroke:#ffff00;stroke-width:20.9395;stroke-dasharray:none"
         id="port34"
         cx="1724.8542"
         cy="1247.1423"
         rx="54.33239"
         ry="54.332417" /><ellipse
         style="opacity:0.71;fill:none;stroke:#ffff00;stroke-width:21.3702;stroke-dasharray:none"
         id="port216"
         cx="705.30658"
         cy="1419.7719"
         rx="55.449825"
         ry="55.449852" /><ellipse
         style="opacity:0.71;fill:none;stroke:#ffff00;stroke-width:21.6243;stroke-dasharray:none"
         id="port130"
         cx="838.71307"
         cy="2592.7773"
         rx="56.109222"
         ry="56.109249" /><ellipse
         style="opacity:0.71;fill:none;stroke:#ffff00;stroke-width:20.6998;stroke-dasharray:none"
         id="port186"
         cx="1833.4221"
         cy="526.72083"
         rx="53.71043"
         ry="53.710457" /><ellipse
         style="opacity:0.71;fill:none;stroke:#ffff00;stroke-width:20.4433;stroke-dasharray:none"
         id="port18"
         cx="2532.813"
         cy="540.68567"
         rx="53.044662"
         ry="53.044685" /><ellipse
         style="opacity:0.71;fill:none;stroke:#ffff00;stroke-width:20.1617;stroke-dasharray:none"
         id="port30"
         cx="580.84924"
         cy="665.48706"
         rx="52.315113"
         ry="52.315132" /><ellipse
         style="opacity:0.71;fill:none;stroke:#ffff00;stroke-width:20.9267;stroke-dasharray:none"
         id="port7"
         cx="283.82101"
         cy="724.87213"
         rx="54.299053"
         ry="54.299076" /></g><path
       style="opacity:1;fill:none;stroke:#000000;stroke-width:21.345"
       d="m 1990.7866,762.87497 c 0,0 668.5698,275.39913 552.6626,570.70863 -115.9073,295.3095 8.2033,380.656 8.2033,380.656 0,0 244.7535,362.8732 20.2671,452.257 -224.4864,89.3838 -327.8689,-69.8724 -327.8689,-69.8724"
       id="path1"
       transform="translate(-5.9999996)" /><g
       id="ship"
       ><path
         id="path2"
         style="fill:#800000;stroke:#000000;stroke-width:0.4;stroke-dasharray:none"
         d="m 137.28708,136.81943 v -0.82376 c -8.23472,-6.87715 -15.90054,-5.46543 -15.90054,-5.46543 -2.79994,-0.37389 -15.7097,0.92084 -15.7097,0.92084 -1.1591,-1.33314 -1.72005,0.34632 -1.72005,0.34632 -5.557707,0.59453 -5.300069,5.17641 -5.300069,5.17641 0,0 -0.257638,4.58187 5.300069,5.1764 0,0 0.56095,1.67946 1.72005,0.34632 0,0 12.90976,1.29473 15.7097,0.92084 0,0 7.66582,1.41172 15.90054,-5.46543 v -0.82376 -0.30875" /><path
         id="path10"
         style="fill:#4d4d4d;stroke:#000000;stroke-width:0.4;stroke-dasharray:none"
         d="m 104.20018,141.40957 c 0,0 15.13866,1.60846 17.15004,0.95365 2.01137,-0.65482 6.20177,-0.27057 6.94521,-0.90644 0,0 3.78082,-0.44641 7.11444,-3.6173 v -0.96022 -0.96022 c -3.33362,-3.17089 -7.11444,-3.6173 -7.11444,-3.6173 -0.74344,-0.63587 -4.93384,-0.25162 -6.94521,-0.90644 -2.01138,-0.65481 -17.15004,0.95365 -17.15004,0.95365 -5.736293,1.12496 -4.809063,4.53031 -4.809063,4.53031 0,0 -0.92723,3.40535 4.809063,4.53031 z" /><path
         id="path5"
         style="fill:#666666;stroke:#000000;stroke-width:0.4;stroke-dasharray:none"
         d="m 105.96421,140.45577 c 0,0 5.45161,0.42844 5.59555,0.32774 0.14394,-0.1007 0.13847,0.27037 0.25844,0.2413 0.11997,-0.0291 4.98462,0.97402 7.16549,0 0.26952,-0.12037 0.7144,-0.48175 0.59101,-0.65946 -0.16835,-0.24246 1.80983,0.26984 1.97937,0.0906 0.16953,-0.1793 0,-3.478 0,-3.478 0,0 0.16953,-3.29869 0,-3.47799 -0.16954,-0.17924 -2.14772,0.33306 -1.97937,0.0906 0.12339,-0.17771 -0.32149,-0.53909 -0.59101,-0.65946 -2.18087,-0.97402 -7.04552,0.0291 -7.16549,0 -0.11997,-0.029 -0.1145,0.34199 -0.25844,0.2413 -0.14394,-0.1007 -5.59555,0.32774 -5.59555,0.32774 v 3.47781 z" /><circle
         style="fill:#666666;stroke:#000000;stroke-width:0.4;stroke-dasharray:none"
         id="path6"
         cx="115.21707"
         cy="136.6846"
         r="2.2053235" /><ellipse
         style="fill:#d40000;stroke:#000000;stroke-width:0.4;stroke-dasharray:none"
         id="path3"
         cx="113.98935"
         cy="136.73718"
         rx="2.0892358"
         ry="2.205457" /><path
         style="fill:#784421;stroke:#000000;stroke-width:0.4;stroke-dasharray:none"
         d="m 121.81973,133.87986 h 7.68122 v 6.1879 h -7.60708"
         id="path11" /><path
         style="fill:#ff9955;stroke:#000000;stroke-width:0.1;stroke-dasharray:none"
         d="m 121.81973,134.97594 7.68122,0.0986"
         id="path12" /><path
         style="fill:#ff9955;stroke:#000000;stroke-width:0.1;stroke-dasharray:none"
         d="m 121.81716,136.30662 h 7.68379"
         id="path13" /><path
         style="fill:#ff9955;stroke:#000000;stroke-width:0.1;stroke-dasharray:none"
         d="m 121.81716,137.46144 h 7.68379"
         id="path14" /><path
         style="fill:#ff9955;stroke:#000000;stroke-width:0.1;stroke-dasharray:none"
         d="m 121.81716,138.68019 h 7.68379"
         id="path15" /></g></g></svg>
