<?xml version="1.0" encoding="UTF-8" standalone="no"?>
<!-- Created with Inkscape (http://www.inkscape.org/) -->

<?xml-stylesheet href="map_style.css" type="text/css"?><svg
   version="1.1"
   id="svg1"
   width="2995"
   height="3201"
   viewBox="0 0 2995 3201"
   xml:space="preserve"
   sodipodi:docname="region1.svg"
   inkscape:export-filename="region1.svg"
   inkscape:export-xdpi="96"
   inkscape:export-ydpi="96"
   inkscape:version="1.3 (0e150ed6c4, 2023-07-21)"
   xmlns:inkscape="http://www.inkscape.org/namespaces/inkscape"
   xmlns:sodipodi="http://sodipodi.sourceforge.net/DTD/sodipodi-0.dtd"
   xmlns:xlink="http://www.w3.org/1999/xlink"
   xmlns="http://www.w3.org/2000/svg"
   xmlns:svg="http://www.w3.org/2000/svg"><sodipodi:namedview
     id="namedview1"
     pagecolor="#ffffff"
     bordercolor="#000000"
     borderopacity="0.25"
     inkscape:showpageshadow="2"
     inkscape:pageopacity="0.0"
     inkscape:pagecheckerboard="0"
     inkscape:deskcolor="#d1d1d1"
     inkscape:zoom="0.23503955"
     inkscape:cx="2252.8123"
     inkscape:cy="1846.4977"
     inkscape:window-width="1366"
     inkscape:window-height="738"
     inkscape:window-x="0"
     inkscape:window-y="30"
     inkscape:window-maximized="1"
     inkscape:current-layer="svg1"
     showgrid="false" /><defs
     id="defs1"><clipPath
       clipPathUnits="userSpaceOnUse"
       id="clipPath3"><rect
         style="opacity:0.71;fill:#ffff00;stroke:#ffff00;stroke-width:18.09;stroke-dasharray:none"
         id="rect3"
         width="3184.6372"
         height="3764.4824"
         x="-174.78702"
         y="-276.43253"
         ry="16.551285" /></clipPath></defs><g
     id="root"
     transform="matrix(0.99988884,0,0,1.0004023,6.4606739,-0.42097808)"
     inkscape:label="root"><g
   id="g1"
   transform="translate(-15.06799,-58.561245)"
   inkscape:label="g1"
   sodipodi:insensitive="true"><image
     width="2995"
     height="3201"
     preserveAspectRatio="none"
     xlink:href="region1.png"
     id="image1"
     x="9.0679903"
     y="58.561245"
     style="display:inline"
     clip-path="url(#clipPath3)" /></g><g
   id="g2"
   transform="matrix(1.0586896,0,0,1.0586896,-122.08398,-205.17357)"
   style="opacity:0;stroke-width:18.1063;stroke-dasharray:none"
   inkscape:label="ports"
   sodipodi:insensitive="true"><ellipse
     style="opacity:0.71;fill:none;stroke:#ffff00;stroke-width:21.4123;stroke-dasharray:none"
     id="port174"
     cx="2609.0603"
     cy="2855.293"
     rx="55.558807"
     ry="55.558826" /><ellipse
     style="opacity:0.71;fill:none;stroke:#ffff00;stroke-width:21.0642;stroke-dasharray:none"
     id="port2"
     cx="1852.1633"
     cy="2290.511"
     rx="54.655643"
     ry="54.655666" /><ellipse
     style="opacity:0.71;fill:none;stroke:#ffff00;stroke-width:20.9395;stroke-dasharray:none"
     id="port34"
     cx="1724.8542"
     cy="1247.1423"
     rx="54.33239"
     ry="54.332417" /><ellipse
     style="opacity:0.71;fill:none;stroke:#ffff00;stroke-width:21.3702;stroke-dasharray:none"
     id="port216"
     cx="705.30658"
     cy="1419.7719"
     rx="55.449825"
     ry="55.449852" /><ellipse
     style="opacity:0.71;fill:none;stroke:#ffff00;stroke-width:21.6243;stroke-dasharray:none"
     id="port130"
     cx="838.71307"
     cy="2592.7773"
     rx="56.109222"
     ry="56.109249" /><ellipse
     style="opacity:0.71;fill:none;stroke:#ffff00;stroke-width:20.6998;stroke-dasharray:none"
     id="port186"
     cx="1833.4221"
     cy="526.72083"
     rx="53.71043"
     ry="53.710457" /><ellipse
     style="opacity:0.71;fill:none;stroke:#ffff00;stroke-width:20.4433;stroke-dasharray:none"
     id="port18"
     cx="2532.813"
     cy="540.68567"
     rx="53.044662"
     ry="53.044685" /><ellipse
     style="opacity:0.71;fill:none;stroke:#ffff00;stroke-width:20.1617;stroke-dasharray:none"
     id="port30"
     cx="580.84924"
     cy="665.48706"
     rx="52.315113"
     ry="52.315132" /><ellipse
     style="opacity:0.71;fill:none;stroke:#ffff00;stroke-width:20.9267;stroke-dasharray:none"
     id="port7"
     cx="283.82101"
     cy="724.87213"
     rx="54.299053"
     ry="54.299076" /></g><g
   id="g7"
   inkscape:label="paths"
   style="display:inline;opacity:0"
   sodipodi:insensitive="true"><path
     style="display:inline;opacity:0.592;fill:none;stroke:#000000;stroke-width:17.778;stroke-dasharray:none"
     d="M 2102.7643,2116.8827 C 2123.5736,2105.3 2920.2995,1407.2643 2391.6221,1027.6954 1862.9446,648.12655 1339.9432,691.79602 1339.9432,691.79602"
     id="path1_2"
     inkscape:label="path1_2" /><path
     style="fill:none;fill-opacity:1;stroke:#000000;stroke-width:17.778;stroke-opacity:1"
     d="m 2103.034,2118.2591 c 0,0 -30.8661,258.681 -205.7196,332.6774 -146.2181,61.8781 -417.6872,-63.2891 -621.6639,-24.5212"
     id="path1_4"
     inkscape:label="path1_4"
     sodipodi:nodetypes="csc" /><path
     style="fill:none;fill-opacity:1;stroke:#000000;stroke-width:17.778;stroke-opacity:1"
     d="m 1339.9432,691.79602 c 0,0 -1071.43001,92.45629 -1213.40579,330.05258 -168.6833,282.2913 -123.5866943,849.4799 273.32487,820.2244"
     id="path2_3"
     inkscape:label="path2_3"
     sodipodi:insensitive="true"
     sodipodi:nodetypes="csc" /><path
     style="fill:none;fill-opacity:1;stroke:#000000;stroke-width:17.778;stroke-opacity:1"
     d="m 393.15547,1843.3433 c -32.3302,44.2617 -1167.86505,1481.4773 882.49503,583.072"
     id="path3_4"
     inkscape:label="path3_4"
     sodipodi:nodetypes="cc" /></g><g
   id="g18"
   inkscape:label="ship_zones"
   style="display:inline;opacity:0"
   sodipodi:insensitive="true"><rect
     style="opacity:0.35;fill:none;stroke:#000000;stroke-width:17.778;stroke-dasharray:none"
     id="ship_zone_2"
     width="40.550964"
     height="37.413109"
     x="1330.6903"
     y="675.10907"
     ry="16.551285"
     inkscape:label="ship_zone_2" /><rect
     style="opacity:0.35;fill:none;stroke:#000000;stroke-width:17.778;stroke-dasharray:none"
     id="ship_zone_1"
     width="58.213455"
     height="58.016003"
     x="2073.3989"
     y="2083.7"
     ry="16.551285"
     inkscape:label="ship_zone_1" /></g>&#10;		 <g
   id="g8"
   inkscape:label="areas"
   style="display:inline;opacity:1"><path
     id="area2"
     style="display:none;opacity:0.25;fill:#ffff00;stroke:#808000;stroke-width:17.778;stroke-dasharray:none"
     d="m 2631.9819,503.23758 c 0,0 51.2411,62.78291 27.431,123.66888 -23.8101,60.88598 -99.3209,70.23285 -99.3209,70.23285 0,0 -144.7837,34.24811 -170.5757,28.04139 0,0 -168.5854,-19.6463 -195.5033,-44.69817 -26.918,-25.05187 -166.8268,-158.72401 -202.7757,-167.31697 -35.9489,-8.59296 -25.736,-51.97747 -51.8321,-58.85242 -26.0961,-6.87496 -198.6762,-152.23418 -194.2694,-176.73422 4.4068,-24.50003 -2.1756,-83.92586 -12.3239,-68.71338 -10.1484,15.21249 -336.6257,129.95065 -609.4128,137.7486 -272.78705,7.79796 -409.24567,57.26722 -424.02965,81.31822 -14.78399,24.05101 -81.56102,63.05567 -71.64902,86.79318 9.91199,23.73752 173.52335,491.51556 173.52335,491.51556 0,0 -6.35048,200.0648 131.4151,220.644 63.1671,9.4358 189.74472,30.8951 249.48982,-5.8595 305.6646,-188.0419 280.1942,-11.9332 341.9183,32.0179 0,0 177.6686,-89.8216 381.9462,-149.6887 0,0 98.1722,-19.6365 96.2715,17.4307 -1.9008,37.0671 119.1,-140.39899 175.6845,-105.397 56.5845,35.0021 51.2171,187.683 51.2171,187.683 0,0 39.7509,6.5132 29.9657,39.5505 -9.7852,33.0374 22.0715,86.3712 22.0715,86.3712 0,0 52.9225,-40.3487 73.6959,-15.8497 20.7734,24.499 146.0906,237.1359 116.7245,249.3591 0,0 2.0277,40.4265 21.8795,34.8439 19.8519,-5.5825 49.9932,-19.853 63.565,-94.8132 0,0 87.4323,-125.0226 98.2936,-117.1957 10.8613,7.8269 36.6929,-41.7774 65.2102,-23.8372 28.5173,17.9402 63.8458,33.9296 112.0542,-47.6263 48.2083,-81.5559 162.8318,66.1079 162.8318,66.1079 V 238.63556 c 0,0 -23.8823,-3.01249 -21.8464,1.51072 2.0359,4.52321 -0.01,27.59177 -1.9096,28.25861 -1.9018,0.66683 -40.5665,15.26389 -43.4245,11.99341 -2.858,-3.27048 3.4406,18.65401 -0.8064,18.42722 -4.2469,-0.22679 -14.7395,12.85897 -16.5809,10.38934 -1.8414,-2.46963 -1.1795,58.52125 -1.1795,58.52125 0,0 -91.2153,31.44674 -124.9986,26.99781 -33.7834,-4.44894 -122.4414,31.56027 -122.4414,31.56027 0,0 -65.4689,35.91768 -42.8017,54.35414 0,0 -3.8547,14.24833 13.8257,23.85709"
     sodipodi:nodetypes="csccsssssssscssccsscscscscsssccscssscsccc"
     inkscape:label="area2" /><path
     style="display:none;opacity:0.25;fill:#ffff00;stroke:#808000;stroke-width:17.778;stroke-dasharray:none"
     d="m 1847.5266,1867.067 c 53.6083,-166.3981 412.7969,-168.3511 536.921,-228.6296 124.1241,-60.2785 302.6018,7.788 349.2394,25.0622 46.6376,17.2742 198.121,-110.634 196.9142,-80.2589 -1.2068,30.375 60.2352,36.2062 60.2352,36.2062 v 1204.9105 c 0,0 -230.2946,27.1727 -274.6549,-27.5851 -44.3603,-54.7577 -89.0096,-66.0439 -166.1381,-29.2976 -77.1284,36.7463 -161.1872,-29.5139 -228.6657,-54.0344 -67.4784,-24.5206 -169.7174,190.7379 -169.7174,190.7379 -382.9655,-207.0087 -438.4414,-667.5486 -438.4414,-667.5486 0,0 278.5484,-168.2433 134.3077,-369.5626 z"
     id="area1"
     inkscape:label="area1" /><path
     style="display:none;opacity:0.25;fill:#ffff00;fill-opacity:1;stroke:#808000;stroke-width:17.778;stroke-opacity:1"
     d="m 2134.5791,2886.2307 c 0,0 -94.8247,26.8357 -95.2205,173.4782 -0.3958,146.6425 -58.357,141.1434 -58.357,141.1434 H -8.1725848 V 2385.4528 L 542.4477,2151.8368 c 0,0 65.75736,37.8546 77.43753,19.5503 0,0 48.50335,15.6149 61.85953,18.1988 13.35617,2.5839 -6.67947,26.0156 -0.54095,34.6188 6.13852,8.6031 50.40993,21.1638 41.67688,31.5711 -8.73305,10.4073 -20.30408,17.2834 -6.53577,18.5124 13.76832,1.229 41.78527,13.4458 47.20028,9.5643 5.41502,-3.8814 191.64216,67.9352 191.64216,67.9352 l -43.98979,58.9431 30.26831,10.4032 c 0,0 83.43082,-22.5711 84.45762,-50.5357 1.0269,-27.9645 98.1425,-277.5919 120.8653,-267.4392 22.7228,10.1527 285.5199,159.4093 328.7259,161.3726 43.206,1.9633 180.4232,62.0591 230.3338,42.6378 0,0 70.2337,301.3017 428.7306,579.0612 z"
     id="area4"
     sodipodi:nodetypes="cscc"
     inkscape:label="area4" /><path
     style="display:none;opacity:0.25;fill:#ffff00;fill-opacity:1;stroke:#808000;stroke-width:17.778;stroke-opacity:1"
     d="M 2.5902265,2378.5935 545.25907,2144.4911 c 0,0 -90.48822,-79.2268 -21.58503,-120.9998 68.9032,-41.7731 246.2495,-115.9662 90.75582,-213.4633 -155.49367,-97.497 -310.43605,-103.743 -279.98346,-261.273 30.45258,-157.53 167.33971,-364.786 285.13046,-344.2393 117.79075,20.5467 234.6371,-54.4415 228.76229,-65.5926 -5.87482,-11.1511 -230.03914,-655.92222 -230.03914,-655.92222 0,0 -27.3706,116.18336 -330.97021,38.81024 0,0 -42.35166,127.56155 -139.41667,169.22051 -97.06501,41.65896 -146.7841248,0 -146.7841248,0 z"
     id="area3"
     inkscape:label="area3" /><path
     sodipodi:type="star"
     style="display:none;fill:#ff0000;stroke:#000000;stroke-width:3.77953"
     id="area6"
     inkscape:flatsided="true"
     sodipodi:sides="3"
     sodipodi:cx="2917.8542"
     sodipodi:cy="2304.4739"
     sodipodi:r1="41.017517"
     sodipodi:r2="35.293724"
     sodipodi:arg1="-2.1508467"
     sodipodi:arg2="-1.1036491"
     inkscape:rounded="0"
     inkscape:randomized="0.087758389"
     d="m 2894.2973,2267.9327 61.9179,34.9571 -60.234,40.2912 z"
     inkscape:transform-center-x="-2.0589167"
     inkscape:transform-center-y="-15.833735"
     transform="translate(21.008724,-70.532763)"
     inkscape:label="area6" /></g></g><image
     preserveAspectRatio="none"
     inkscape:svg-dpi="96"
     width="147.52299"
     height="51.116402"
     xlink:href="ship_icon.svg"
     id="ship"
     x="0"
     y="0"
     inkscape:label="ship" /></svg>
