<?xml version="1.0" encoding="UTF-8" standalone="no"?>
<!-- Created with Inkscape (http://www.inkscape.org/) -->

<?xml-stylesheet href="map_style.css" type="text/css"?>
<svg
   width="2995"
   height="3201"
   viewBox="0 0 2995 3201"
   version="1.1"
   id="svg1"
   inkscape:version="1.3 (0e150ed6c4, 2023-07-21)"
   sodipodi:docname="region2.svg"
   xml:space="preserve"
   xmlns:inkscape="http://www.inkscape.org/namespaces/inkscape"
   xmlns:sodipodi="http://sodipodi.sourceforge.net/DTD/sodipodi-0.dtd"
   xmlns:xlink="http://www.w3.org/1999/xlink"
   xmlns="http://www.w3.org/2000/svg"
   xmlns:svg="http://www.w3.org/2000/svg"><sodipodi:namedview
   id="namedview1"
   pagecolor="#ffffff"
   bordercolor="#000000"
   borderopacity="0.25"
   inkscape:showpageshadow="2"
   inkscape:pageopacity="0.0"
   inkscape:pagecheckerboard="0"
   inkscape:deskcolor="#d1d1d1"
   inkscape:document-units="px"
   inkscape:zoom="0.1106163"
   inkscape:cx="-94.922715"
   inkscape:cy="2847.6815"
   inkscape:window-width="1366"
   inkscape:window-height="734"
   inkscape:window-x="0"
   inkscape:window-y="34"
   inkscape:window-maximized="1"
   inkscape:current-layer="root" /><defs
   id="defs1"><clipPath
     clipPathUnits="userSpaceOnUse"
     id="clipPath1"><rect
       style="fill:none;stroke:#000000;stroke-width:0.868556;stroke-dasharray:none"
       id="rect2"
       width="793.32257"
       height="846.42694"
       x="-319.96405"
       y="-153.7352"
       ry="3.7154176" /></clipPath></defs><g
   inkscape:label="root"
   id="root"
   transform="matrix(3.7752957,0,0,3.7852278,1207.9948,582.04464)"><image
     width="793.48541"
     height="846.66669"
     preserveAspectRatio="none"
     xlink:href="region2.png"
     id="image1"
     x="-320.04248"
     y="-153.76866"
     clip-path="url(#clipPath1)"
     transform="translate(1.383259e-4)"
     style="display:inline" /><g
     id="g5"
     inkscape:label="areas"
     style="display:inline;opacity:1"><path
       style="display:none;opacity:0.25;fill:#ffff00;stroke:none;stroke-width:1;stroke-dasharray:none"
       d="m -150.27367,346.30192 c -54.68238,-16.71968 -168.95865,-97.21993 -168.95865,-97.21993 V 692.73812 H 176.2713 c -2.57658,-0.0709 15.81751,-43.37931 9.4523,-81.68354 C 137.02461,654.812 21.698726,593.20709 83.064028,528.77436 121.63502,488.27535 179.41411,469.2467 209.47784,522.99039 c -4.64923,-0.42194 -0.93468,-76.55375 -27.86859,-117.43746 -0.59808,4.02094 -90.44744,58.27891 -126.931803,-4.23183 0.104348,1.11983 -57.9920591,-22.66119 -77.835424,0.40955 -26.398101,30.69156 -40.290573,33.56325 -77.647243,31.43511 -26.93783,-1.5346 -51.65044,11.29742 -59.85582,-5.2491 -8.20538,-16.54652 -56.04026,-63.07509 -32.16551,-76.26827 23.87474,-13.19318 42.55288,-5.34647 42.55288,-5.34647 z"
       id="area6"
       sodipodi:nodetypes="cccccscccssssc"
       inkscape:label="area6" /><path
       style="display:none;opacity:0.25;fill:#ffff00;stroke:none;stroke-width:1;stroke-dasharray:none"
       d="m 176.37599,693.06536 c 0,0 61.9101,-130.06842 34.16549,-168.48735 0,0 -4.61126,-126.09445 -25.46,-125.38969 0,0 46.22667,-18.29318 8.26618,-50.42094 0,0 43.80552,-55.0081 38.1466,-58.33209 l 94.268,-14.17509 c 0,0 33.5206,30.27442 35.01255,53.72168 1.49194,23.44726 33.68679,29.7631 54.0338,27.90488 20.34701,-1.85822 65.76724,-23.18038 59.65649,-28.75762 -6.11075,-5.57723 0,365.42817 0,365.42817 z"
       id="area7"
       inkscape:label="area7" /><path
       style="display:none;opacity:0.25;fill:none;stroke:#000000;stroke-width:1;stroke-dasharray:none"
       d="m 233.23043,284.94798 c 0,0 -17.57024,-39.40881 -16.55252,-40.88831 1.01769,-1.47947 -20.81953,-2.79561 -20.09746,-5.71188 0.72207,-2.91626 8.57525,-63.74085 40.46381,-79.66572 31.88857,-15.92487 38.07759,-42.47367 38.07759,-42.47367 0,0 28.61488,-53.609408 75.75058,1.1751 0,0 37.02329,18.73783 -3.05336,58.24053 0,0 9.91739,8.37877 -2.3852,20.23877 0,0 -10.61995,17.66093 -8.11517,23.40417 2.50479,5.74323 3.45737,10.90446 -4.78768,15.53254 -8.24504,4.62809 4.9629,1.92955 -6.2639,20.91567 l -0.73475,20.23254 z"
       id="area8"
       inkscape:label="area8" /><path
       style="display:none;opacity:0.25;fill:none;stroke:#000000;stroke-width:1;stroke-dasharray:none"
       d="m -319.82044,-85.00889 c 23.35655,-8.24969 9.95141,-33.37839 13.67595,-37.18359 3.72453,-3.8052 9.56498,-23.78779 9.56498,-23.78779 7.72361,2.42193 23.10978,-7.82805 23.10978,-7.82805 l 113.29048,0.25561 c 0,0 -6.37205,13.06954 -7.00132,25.02082 -0.62926,11.95128 43.37215,46.319286 43.97639,49.475951 0.60423,3.156665 -7.89531,18.512344 -9.81444,29.352651 -1.91912,10.840308 25.3634,30.702933 33.109419,37.612067 7.746016,6.9091339 55.214202,11.09436049 55.214202,11.09436049 0,0 -39.694707,127.49491051 4.605949,152.60642051 44.3006559,25.11151 57.677508,107.19162 59.11526,111.59503 1.437752,4.4034 22.662839,11.01801 30.144988,16.98278 7.482148,5.96476 -15.627939,33.9135 -12.380253,44.22402 3.247686,10.31052 -25.107359,34.73052 -23.777898,45.36113 1.329462,10.63061 10.377992,10.89124 10.377992,10.89124 l -53.011271,4.60156 c 0,0 9.098018,10.18323 -7.479369,-37.98479 -16.577388,-48.16802 -60.966344,-37.51625 -70.651829,-42.60214 -9.68549,-5.08588 -34.86147,30.9971 -34.86147,30.9971 -74.26851,-7.08801 -176.34938,-107.81001 -176.34938,-107.81001 z"
       id="area5"
       sodipodi:nodetypes="ccssccssssscssssccccc"
       inkscape:label="area5" /><path
       sodipodi:type="star"
       style="display:none;fill:#ff0000;stroke:#000000;stroke-width:3.77953"
       id="area1"
       inkscape:flatsided="true"
       sodipodi:sides="3"
       sodipodi:cx="2917.8542"
       sodipodi:cy="2304.4739"
       sodipodi:r1="41.017517"
       sodipodi:r2="35.293724"
       sodipodi:arg1="-2.1508467"
       sodipodi:arg2="-1.1036491"
       inkscape:rounded="0"
       inkscape:randomized="0.087758389"
       d="m 2894.2973,2267.9327 61.9179,34.9571 -60.234,40.2912 z"
       inkscape:transform-center-x="2.0590736"
       inkscape:transform-center-y="-15.833735"
       transform="matrix(-0.26485047,0,0,0.26429117,465.52767,-109.69678)"
       inkscape:label="area1" /></g><g
     id="g2"
     inkscape:label="ship zones"
     transform="translate(-319.96405,-153.7352)"
     style="opacity:0"><rect
       style="fill:#ff0000;stroke:#000000;stroke-width:1"
       id="ship_zone_1"
       width="17.07098"
       height="17.972126"
       x="192.29167"
       y="684.49707"
       ry="4.3791943"
       inkscape:label="ship_zone_1" /></g><g
     id="g1"
     inkscape:label="paths"
     style="opacity:0"><path
       style="fill:none;stroke:#000000;stroke-width:1.04059"
       d="m -120.82582,538.91754 c 0,0 301.66502,-159.58856 478.01614,11.93979"
       id="path6_7"
       inkscape:label="path6_7" /></g><image
     preserveAspectRatio="xMidYMid"
     inkscape:svg-dpi="96"
     width="40.233212"
     height="14.446177"
     xlink:href="ship_icon.svg"
     id="ship"
     x="-319.96405"
     y="-153.7352"
     inkscape:label="ship" /></g>&#10;	 </svg>
