<?xml version="1.0" encoding="UTF-8" standalone="no"?>
<!-- Created with Inkscape (http://www.inkscape.org/) -->

<?xml-stylesheet href="map_style.css" type="text/css"?>
<svg
   version="1.1"
   id="svg1"
   width="3010.3672"
   height="3201"
   viewBox="0 0 3010.3671 3201"
   xml:space="preserve"
   xmlns:xlink="http://www.w3.org/1999/xlink"
   xmlns="http://www.w3.org/2000/svg"
   xmlns:svg="http://www.w3.org/2000/svg"><defs
     id="defs1"><clipPath
       clipPathUnits="userSpaceOnUse"
       id="clipPath3"><rect
         style="opacity:0.71;fill:#ffff00;stroke:#ffff00;stroke-width:18.09;stroke-dasharray:none"
         id="rect3"
         width="3184.6372"
         height="3764.4824"
         x="-174.78702"
         y="-276.43253"
         ry="16.551285" /></clipPath></defs><g
     id="root"
     transform="translate(5.9999997)"><g
       id="g1"
       transform="translate(-15.06799,-58.561245)"><image
         width="2995"
         height="3201"
         preserveAspectRatio="none"
         xlink:href="region1.png"
         id="image1"
         x="9.0679903"
         y="58.561245"
         style="display:inline"
         clip-path="url(#clipPath3)" /></g><g
       id="g2"
       transform="matrix(1.0586896,0,0,1.0586896,-122.08398,-205.17357)"
       style="stroke-width:18.1063;stroke-dasharray:none"><ellipse
         style="opacity:0.71;fill:none;stroke:#ffff00;stroke-width:21.4123;stroke-dasharray:none"
         id="port174"
         cx="2609.0603"
         cy="2855.293"
         rx="55.558807"
         ry="55.558826" /><ellipse
         style="opacity:0.71;fill:none;stroke:#ffff00;stroke-width:21.0642;stroke-dasharray:none"
         id="port2"
         cx="1852.1633"
         cy="2290.511"
         rx="54.655643"
         ry="54.655666" /><ellipse
         style="opacity:0.71;fill:none;stroke:#ffff00;stroke-width:20.9395;stroke-dasharray:none"
         id="port34"
         cx="1724.8542"
         cy="1247.1423"
         rx="54.33239"
         ry="54.332417" /><ellipse
         style="opacity:0.71;fill:none;stroke:#ffff00;stroke-width:21.3702;stroke-dasharray:none"
         id="port216"
         cx="705.30658"
         cy="1419.7719"
         rx="55.449825"
         ry="55.449852" /><ellipse
         style="opacity:0.71;fill:none;stroke:#ffff00;stroke-width:21.6243;stroke-dasharray:none"
         id="port130"
         cx="838.71307"
         cy="2592.7773"
         rx="56.109222"
         ry="56.109249" /><ellipse
         style="opacity:0.71;fill:none;stroke:#ffff00;stroke-width:20.6998;stroke-dasharray:none"
         id="port186"
         cx="1833.4221"
         cy="526.72083"
         rx="53.71043"
         ry="53.710457" /><ellipse
         style="opacity:0.71;fill:none;stroke:#ffff00;stroke-width:20.4433;stroke-dasharray:none"
         id="port18"
         cx="2532.813"
         cy="540.68567"
         rx="53.044662"
         ry="53.044685" /><ellipse
         style="opacity:0.71;fill:none;stroke:#ffff00;stroke-width:20.1617;stroke-dasharray:none"
         id="port30"
         cx="580.84924"
         cy="665.48706"
         rx="52.315113"
         ry="52.315132" /><ellipse
         style="opacity:0.71;fill:none;stroke:#ffff00;stroke-width:20.9267;stroke-dasharray:none"
         id="port7"
         cx="283.82101"
         cy="724.87213"
         rx="54.299053"
         ry="54.299076" /></g><g
       id="g7"
       style="opacity:0"><path
         style="display:inline;opacity:0.35;fill:none;stroke:#000000;stroke-width:17.778;stroke-dasharray:none"
         d="M 2102.7643,2116.8827 C 2123.5736,2105.3 2920.2995,1407.2643 2391.6221,1027.6954 1862.9446,648.12655 1339.9432,691.79602 1339.9432,691.79602"
         id="path17" /></g><g
       id="g18"
       style="opacity:0"><rect
         style="opacity:0.35;fill:none;stroke:#000000;stroke-width:17.778;stroke-dasharray:none"
         id="rect17"
         width="40.550964"
         height="37.413109"
         x="1330.6903"
         y="675.10907"
         ry="16.551285" /><rect
         style="opacity:0.35;fill:none;stroke:#000000;stroke-width:17.778;stroke-dasharray:none"
         id="rect18"
         width="58.213455"
         height="58.016003"
         x="2073.3989"
         y="2083.7"
         ry="16.551285" /></g><g
       id="ship"
       transform="matrix(3.7795276,0,0,3.7795276,1495.3342,233.48501)"
       style="display:inline"><path
         id="path2"
         style="fill:#800000;stroke:#000000;stroke-width:0.4;stroke-dasharray:none"
         d="m 137.28708,136.81943 v -0.82376 c -8.23472,-6.87715 -15.90054,-5.46543 -15.90054,-5.46543 -2.79994,-0.37389 -15.7097,0.92084 -15.7097,0.92084 -1.1591,-1.33314 -1.72005,0.34632 -1.72005,0.34632 -5.557707,0.59453 -5.300069,5.17641 -5.300069,5.17641 0,0 -0.257638,4.58187 5.300069,5.1764 0,0 0.56095,1.67946 1.72005,0.34632 0,0 12.90976,1.29473 15.7097,0.92084 0,0 7.66582,1.41172 15.90054,-5.46543 v -0.82376 -0.30875" /><path
         id="path10"
         style="fill:#4d4d4d;stroke:#000000;stroke-width:0.4;stroke-dasharray:none"
         d="m 104.20018,141.40957 c 0,0 15.13866,1.60846 17.15004,0.95365 2.01137,-0.65482 6.20177,-0.27057 6.94521,-0.90644 0,0 3.78082,-0.44641 7.11444,-3.6173 v -0.96022 -0.96022 c -3.33362,-3.17089 -7.11444,-3.6173 -7.11444,-3.6173 -0.74344,-0.63587 -4.93384,-0.25162 -6.94521,-0.90644 -2.01138,-0.65481 -17.15004,0.95365 -17.15004,0.95365 -5.736293,1.12496 -4.809063,4.53031 -4.809063,4.53031 0,0 -0.92723,3.40535 4.809063,4.53031 z" /><path
         id="path5"
         style="fill:#666666;stroke:#000000;stroke-width:0.4;stroke-dasharray:none"
         d="m 105.96421,140.45577 c 0,0 5.45161,0.42844 5.59555,0.32774 0.14394,-0.1007 0.13847,0.27037 0.25844,0.2413 0.11997,-0.0291 4.98462,0.97402 7.16549,0 0.26952,-0.12037 0.7144,-0.48175 0.59101,-0.65946 -0.16835,-0.24246 1.80983,0.26984 1.97937,0.0906 0.16953,-0.1793 0,-3.478 0,-3.478 0,0 0.16953,-3.29869 0,-3.47799 -0.16954,-0.17924 -2.14772,0.33306 -1.97937,0.0906 0.12339,-0.17771 -0.32149,-0.53909 -0.59101,-0.65946 -2.18087,-0.97402 -7.04552,0.0291 -7.16549,0 -0.11997,-0.029 -0.1145,0.34199 -0.25844,0.2413 -0.14394,-0.1007 -5.59555,0.32774 -5.59555,0.32774 v 3.47781 z" /><circle
         style="fill:#666666;stroke:#000000;stroke-width:0.4;stroke-dasharray:none"
         id="path6"
         cx="115.21707"
         cy="136.6846"
         r="2.2053235" /><ellipse
         style="fill:#d40000;stroke:#000000;stroke-width:0.4;stroke-dasharray:none"
         id="path3"
         cx="113.98935"
         cy="136.73718"
         rx="2.0892358"
         ry="2.205457" /><path
         style="fill:#784421;stroke:#000000;stroke-width:0.4;stroke-dasharray:none"
         d="m 121.81973,133.87986 h 7.68122 v 6.1879 h -7.60708"
         id="path11" /><path
         style="fill:#ff9955;stroke:#000000;stroke-width:0.1;stroke-dasharray:none"
         d="m 121.81973,134.97594 7.68122,0.0986"
         id="path12" /><path
         style="fill:#ff9955;stroke:#000000;stroke-width:0.1;stroke-dasharray:none"
         d="m 121.81716,136.30662 h 7.68379"
         id="path13" /><path
         style="fill:#ff9955;stroke:#000000;stroke-width:0.1;stroke-dasharray:none"
         d="m 121.81716,137.46144 h 7.68379"
         id="path14" /><path
         style="fill:#ff9955;stroke:#000000;stroke-width:0.1;stroke-dasharray:none"
         d="m 121.81716,138.68019 h 7.68379"
         id="path15" /></g><g
       id="g8"
       style="display:inline;opacity:1"><path
         id="area2"
         style="opacity:0;fill:#ffff00;stroke:#808000;stroke-width:17.778;stroke-dasharray:none"
         d="m 2631.9819,503.23758 c 0,0 51.2411,62.78291 27.431,123.66888 -23.8101,60.88598 -99.3209,70.23285 -99.3209,70.23285 0,0 -144.7837,34.24811 -170.5757,28.04139 0,0 -168.5854,-19.6463 -195.5033,-44.69817 -26.918,-25.05187 -166.8268,-158.72401 -202.7757,-167.31697 -35.9489,-8.59296 -25.736,-51.97747 -51.8321,-58.85242 -26.0961,-6.87496 -198.6762,-152.23418 -194.2694,-176.73422 4.4068,-24.50003 -2.1756,-83.92586 -12.3239,-68.71338 -10.1484,15.21249 -336.6257,129.95065 -609.4128,137.7486 -272.78705,7.79796 -409.24567,57.26722 -424.02965,81.31822 -14.78399,24.05101 -81.56102,63.05567 -71.64902,86.79318 9.91199,23.73752 173.52335,491.51556 173.52335,491.51556 0,0 -6.35048,200.0648 131.4151,220.644 63.1671,9.4358 189.74472,30.8951 249.48982,-5.8595 305.6646,-188.0419 280.1942,-11.9332 341.9183,32.0179 0,0 177.6686,-89.8216 381.9462,-149.6887 0,0 98.1722,-19.6365 96.2715,17.4307 -1.9008,37.0671 119.1,-140.39899 175.6845,-105.397 56.5845,35.0021 51.2171,187.683 51.2171,187.683 0,0 39.7509,6.5132 29.9657,39.5505 -9.7852,33.0374 22.0715,86.3712 22.0715,86.3712 0,0 52.9225,-40.3487 73.6959,-15.8497 20.7734,24.499 146.0906,237.1359 116.7245,249.3591 0,0 2.0277,40.4265 21.8795,34.8439 19.8519,-5.5825 49.9932,-19.853 63.565,-94.8132 0,0 87.4323,-125.0226 98.2936,-117.1957 10.8613,7.8269 36.6929,-41.7774 65.2102,-23.8372 28.5173,17.9402 63.8458,33.9296 112.0542,-47.6263 48.2083,-81.5559 162.8318,66.1079 162.8318,66.1079 V 238.63556 c 0,0 -23.8823,-3.01249 -21.8464,1.51072 2.0359,4.52321 -0.01,27.59177 -1.9096,28.25861 -1.9018,0.66683 -40.5665,15.26389 -43.4245,11.99341 -2.858,-3.27048 3.4406,18.65401 -0.8064,18.42722 -4.2469,-0.22679 -14.7395,12.85897 -16.5809,10.38934 -1.8414,-2.46963 -1.1795,58.52125 -1.1795,58.52125 0,0 -91.2153,31.44674 -124.9986,26.99781 -33.7834,-4.44894 -122.4414,31.56027 -122.4414,31.56027 0,0 -65.4689,35.91768 -42.8017,54.35414 0,0 -3.8547,14.24833 13.8257,23.85709" /><path
         style="opacity:0;fill:#ffff00;stroke:#808000;stroke-width:17.778;stroke-dasharray:none"
         d="m 1847.5266,1867.067 c 53.6083,-166.3981 412.7969,-168.3511 536.921,-228.6296 124.1241,-60.2785 302.6018,7.788 349.2394,25.0622 46.6376,17.2742 198.121,-110.634 196.9142,-80.2589 -1.2068,30.375 60.2352,36.2062 60.2352,36.2062 v 1204.9105 c 0,0 -230.2946,27.1727 -274.6549,-27.5851 -44.3603,-54.7577 -89.0096,-66.0439 -166.1381,-29.2976 -77.1284,36.7463 -161.1872,-29.5139 -228.6657,-54.0344 -67.4784,-24.5206 -169.7174,190.7379 -169.7174,190.7379 -382.9655,-207.0087 -438.4414,-667.5486 -438.4414,-667.5486 0,0 278.5484,-168.2433 134.3077,-369.5626 z"
         id="area1" /></g></g></svg>
