<?xml version="1.0" encoding="UTF-8" standalone="no"?>
<!-- Created with Inkscape (http://www.inkscape.org/) -->

<svg
   width="39.032078mm"
   height="13.524542mm"
   viewBox="0 0 39.032078 13.524542"
   version="1.1"
   id="svg1"
   inkscape:version="1.3 (0e150ed6c4, 2023-07-21)"
   sodipodi:docname="ship_icon.svg"
   xmlns:inkscape="http://www.inkscape.org/namespaces/inkscape"
   xmlns:sodipodi="http://sodipodi.sourceforge.net/DTD/sodipodi-0.dtd"
   xmlns="http://www.w3.org/2000/svg"
   xmlns:svg="http://www.w3.org/2000/svg">
  <sodipodi:namedview
     id="namedview1"
     pagecolor="#ffffff"
     bordercolor="#000000"
     borderopacity="0.25"
     inkscape:showpageshadow="2"
     inkscape:pageopacity="0.0"
     inkscape:pagecheckerboard="0"
     inkscape:deskcolor="#d1d1d1"
     inkscape:document-units="mm"
     inkscape:zoom="1.1893651"
     inkscape:cx="58.854932"
     inkscape:cy="95.008676"
     inkscape:window-width="679"
     inkscape:window-height="734"
     inkscape:window-x="683"
     inkscape:window-y="30"
     inkscape:window-maximized="1"
     inkscape:current-layer="svg1" />
  <defs
     id="defs1" />
  <g
     inkscape:label="ship"
     id="ship"
     transform="translate(-98.455002,-130.21153)"
     style="display:inline">
    <path
       id="path2"
       style="fill:#800000;stroke:#000000;stroke-width:0.4;stroke-dasharray:none"
       d="m 137.28708,136.81943 v -0.82376 c -8.23472,-6.87715 -15.90054,-5.46543 -15.90054,-5.46543 -2.79994,-0.37389 -15.7097,0.92084 -15.7097,0.92084 -1.1591,-1.33314 -1.72005,0.34632 -1.72005,0.34632 -5.557707,0.59453 -5.300069,5.17641 -5.300069,5.17641 0,0 -0.257638,4.58187 5.300069,5.1764 0,0 0.56095,1.67946 1.72005,0.34632 0,0 12.90976,1.29473 15.7097,0.92084 0,0 7.66582,1.41172 15.90054,-5.46543 v -0.82376 -0.30875"
       sodipodi:nodetypes="cccccccccccc" />
    <path
       id="path10"
       style="fill:#4d4d4d;stroke:#000000;stroke-width:0.4;stroke-dasharray:none"
       d="m 104.20018,141.40957 c 0,0 15.13866,1.60846 17.15004,0.95365 2.01137,-0.65482 6.20177,-0.27057 6.94521,-0.90644 0,0 3.78082,-0.44641 7.11444,-3.6173 v -0.96022 -0.96022 c -3.33362,-3.17089 -7.11444,-3.6173 -7.11444,-3.6173 -0.74344,-0.63587 -4.93384,-0.25162 -6.94521,-0.90644 -2.01138,-0.65481 -17.15004,0.95365 -17.15004,0.95365 -5.736293,1.12496 -4.809063,4.53031 -4.809063,4.53031 0,0 -0.92723,3.40535 4.809063,4.53031 z"
       sodipodi:nodetypes="cscccccsccc" />
    <path
       id="path5"
       style="fill:#666666;stroke:#000000;stroke-width:0.4;stroke-dasharray:none"
       inkscape:label="path5"
       d="m 105.96421,140.45577 c 0,0 5.45161,0.42844 5.59555,0.32774 0.14394,-0.1007 0.13847,0.27037 0.25844,0.2413 0.11997,-0.0291 4.98462,0.97402 7.16549,0 0.26952,-0.12037 0.7144,-0.48175 0.59101,-0.65946 -0.16835,-0.24246 1.80983,0.26984 1.97937,0.0906 0.16953,-0.1793 0,-3.478 0,-3.478 0,0 0.16953,-3.29869 0,-3.47799 -0.16954,-0.17924 -2.14772,0.33306 -1.97937,0.0906 0.12339,-0.17771 -0.32149,-0.53909 -0.59101,-0.65946 -2.18087,-0.97402 -7.04552,0.0291 -7.16549,0 -0.11997,-0.029 -0.1145,0.34199 -0.25844,0.2413 -0.14394,-0.1007 -5.59555,0.32774 -5.59555,0.32774 v 3.47781 z"
       sodipodi:nodetypes="czzsscccsszzccc" />
    <circle
       style="fill:#666666;stroke:#000000;stroke-width:0.4;stroke-dasharray:none"
       id="path6"
       cx="115.21707"
       cy="136.6846"
       r="2.2053235" />
    <ellipse
       style="fill:#d40000;stroke:#000000;stroke-width:0.4;stroke-dasharray:none"
       id="path3"
       cx="113.98935"
       cy="136.73718"
       rx="2.0892358"
       ry="2.205457" />
    <path
       style="fill:#784421;stroke:#000000;stroke-width:0.4;stroke-dasharray:none"
       d="m 121.81973,133.87986 h 7.68122 v 6.1879 h -7.60708"
       id="path11" />
    <path
       style="fill:#ff9955;stroke:#000000;stroke-width:0.1;stroke-dasharray:none"
       d="m 121.81973,134.97594 7.68122,0.0986"
       id="path12" />
    <path
       style="fill:#ff9955;stroke:#000000;stroke-width:0.1;stroke-dasharray:none"
       d="m 121.81716,136.30662 h 7.68379"
       id="path13" />
    <path
       style="fill:#ff9955;stroke:#000000;stroke-width:0.1;stroke-dasharray:none"
       d="m 121.81716,137.46144 h 7.68379"
       id="path14" />
    <path
       style="fill:#ff9955;stroke:#000000;stroke-width:0.1;stroke-dasharray:none"
       d="m 121.81716,138.68019 h 7.68379"
       id="path15" />
  </g>
</svg>
