<?xml version="1.0" encoding="UTF-8" standalone="no"?>
<!-- Created with Inkscape (http://www.inkscape.org/) -->

<?xml-stylesheet href="ship_style.css" type="text/css"?>
<svg
   version="1.1"
   id="svg48"
   width="100%"
   height="100%"
   viewBox="0 0 3062 1568"
   xml:space="preserve"
   xmlns:xlink="http://www.w3.org/1999/xlink"
   xmlns="http://www.w3.org/2000/svg"
   xmlns:svg="http://www.w3.org/2000/svg"><defs
     id="defs52"><linearGradient
       id="linearGradient29922"><stop
         style="stop-color:#000000;stop-opacity:1;"
         offset="0"
         id="stop29918" /><stop
         style="stop-color:#ff9955;stop-opacity:1;"
         offset="1"
         id="stop29920" /></linearGradient><linearGradient
       xlink:href="#linearGradient29922"
       id="linearGradient29924"
       x1="1438.7666"
       y1="852.66943"
       x2="1438.7666"
       y2="873.73151"
       gradientUnits="userSpaceOnUse"
       gradientTransform="matrix(1.0008113,0,0,0.91625395,-5.0092904,73.885579)" /><clipPath
       clipPathUnits="userSpaceOnUse"
       id="clipPath161"><path
         id="path163"
         style="display:inline;fill:none;fill-opacity:1;stroke:#000000;stroke-width:4;stroke-dasharray:none;stroke-opacity:1"
         d="m 1896.7304,805.50465 -0.4194,-51.11294 4.2742,-8.23586 8.684,0.21279 3.521,-4.49249 -0.1177,-9.36171 7.7828,1.73582 3.1727,-3.60134 -5.8068,-3.55084 c 0,0 -5.2915,-20.14905 -13.3216,-26.72344 -51.8097,-0.8096 -51.1811,-0.67792 -51.1811,-0.67792 l -0.4317,-56.23516 3.7779,1.42521 c 0,0 5.1775,-0.59318 8.3372,-4.36879 0,0 -17.8368,-28.1326 -17.9743,-33.54794 l 0.5623,-4.68726 -63.3141,0.33561 c -62.9855,-0.0254 -155.2928,-0.0254 -155.2928,-0.0254 l -20.1365,36.05803 13.4682,0.17611 1.813,62.86233 -16.8034,25.31183 19.1004,3.01443 -0.5251,96.36004 -575.3032,-1.69761 -36.0552,27.48132 42.8013,7.11339 0.2952,71.09755 -42.278,-0.70846 c 0,0 -4.8118,16.00475 -11.4729,18.21786 l -148.80481,-0.37854 -0.41611,-18.60152 c 0,0 1.05552,-8.86767 -10.65067,-10.48368 l -155.92924,-4.38417 -13.2595,15.94561 1.71892,23.67262 -318.96565,-2.76983 c 0,0 -3.14106,-2.73776 -2.64056,-6.73024 0.5005,-3.99247 -4.63655,-13.42461 -4.63655,-13.42461 L 95.52998,928.73826 c 0,0 4.99864,6.46676 -10.394342,20.28793 l -1.333254,5.08866 31.748786,54.06075 c 0,0 25.14542,33.9634 35.18091,35.9028 0,0 95.26626,74.7452 81.80401,103.4174 M 1896.7304,805.50465 c 0,0 1.0363,11.22618 12.2987,13.43164 11.2623,2.20546 33.3426,36.56871 33.3426,36.56871 l -36.1916,2.10803 -0.075,32.406 c -27.0654,11.70426 -28.2547,56.03449 -28.2547,56.03449 l 295.8121,-2.07619 68.725,-115.52171 c 0,0 113.5659,1.6104 116.5465,2.22822 2.9806,0.61782 16.2434,19.78837 16.2434,19.78837 l -12.0021,11.91592 1.3716,49.88141 231.8228,-122.82203 c 105.1813,-14.74554 -231.8228,122.82203 355.0427,28.17325 -5.1699,0.41429 -27.0591,78.15489 -26.0544,90.88094 1.0047,12.72605 -1.9709,169.8404 -1.9709,169.8404 0,0 0,0.9638 -1.5837,114.7567 0,0 -19.8659,135.5198 -25.9205,143.8136 -6.0547,8.2939 -22.8251,26.0146 -27.4734,27.0159 -4.6483,1.0013 -44.6576,9.9023 -56.2097,10.731 -11.5521,0.8288 -111.1486,7.9675 -123.131,8.0624 -11.9824,0.095 -2370.3062,3.004 -2370.3062,3.004 0,0 -3.22084,-138.088 -86.22651,-238.2299" /></clipPath><clipPath
       clipPathUnits="userSpaceOnUse"
       id="clipPath165"><path
         id="path167"
         style="display:inline;fill:none;fill-opacity:1;stroke:#000000;stroke-width:4;stroke-dasharray:none;stroke-opacity:1"
         d="m 1896.7304,805.50465 -0.4194,-51.11294 4.2742,-8.23586 8.684,0.21279 3.521,-4.49249 -0.1177,-9.36171 7.7828,1.73582 3.1727,-3.60134 -5.8068,-3.55084 c 0,0 -5.2915,-20.14905 -13.3216,-26.72344 -51.8097,-0.8096 -51.1811,-0.67792 -51.1811,-0.67792 l -0.4317,-56.23516 3.7779,1.42521 c 0,0 5.1775,-0.59318 8.3372,-4.36879 0,0 -17.8368,-28.1326 -17.9743,-33.54794 l 0.5623,-4.68726 -63.3141,0.33561 c -62.9855,-0.0254 -155.2928,-0.0254 -155.2928,-0.0254 l -20.1365,36.05803 13.4682,0.17611 1.813,62.86233 -16.8034,25.31183 19.1004,3.01443 -0.5251,96.36004 -575.3032,-1.69761 -36.0552,27.48132 42.8013,7.11339 0.2952,71.09755 -42.278,-0.70846 c 0,0 -4.8118,16.00475 -11.4729,18.21786 l -148.80481,-0.37854 -0.41611,-18.60152 c 0,0 1.05552,-8.86767 -10.65067,-10.48368 l -155.92924,-4.38417 -13.2595,15.94561 1.71892,23.67262 -318.96565,-2.76983 c 0,0 -3.14106,-2.73776 -2.64056,-6.73024 0.5005,-3.99247 -4.63655,-13.42461 -4.63655,-13.42461 L 95.52998,928.73826 c 0,0 4.99864,6.46676 -10.394342,20.28793 l -1.333254,5.08866 31.748786,54.06075 c 0,0 25.14542,33.9634 35.18091,35.9028 0,0 95.26626,74.7452 81.80401,103.4174 M 1896.7304,805.50465 c 0,0 1.0363,11.22618 12.2987,13.43164 11.2623,2.20546 33.3426,36.56871 33.3426,36.56871 l -36.1916,2.10803 -0.075,32.406 c -27.0654,11.70426 -28.2547,56.03449 -28.2547,56.03449 l 295.8121,-2.07619 68.725,-115.52171 c 0,0 113.5659,1.6104 116.5465,2.22822 2.9806,0.61782 16.2434,19.78837 16.2434,19.78837 l -12.0021,11.91592 1.3716,49.88141 231.8228,-122.82203 c 105.1813,-14.74554 -231.8228,122.82203 355.0427,28.17325 -5.1699,0.41429 -27.0591,78.15489 -26.0544,90.88094 1.0047,12.72605 -1.9709,169.8404 -1.9709,169.8404 0,0 0,0.9638 -1.5837,114.7567 0,0 -19.8659,135.5198 -25.9205,143.8136 -6.0547,8.2939 -22.8251,26.0146 -27.4734,27.0159 -4.6483,1.0013 -44.6576,9.9023 -56.2097,10.731 -11.5521,0.8288 -111.1486,7.9675 -123.131,8.0624 -11.9824,0.095 -2370.3062,3.004 -2370.3062,3.004 0,0 -3.22084,-138.088 -86.22651,-238.2299" /></clipPath></defs><g
     id="g54"
     style="display:inline"><image
       width="3062"
       height="1568"
       preserveAspectRatio="none"
       xlink:href="../../../../../../assets/ship.png"
       id="image56"
       style="display:inline" /></g><g
     id="layer1"
     style="display:inline"><g
       id="layer3"
       style="display:none"><path
         id="path3652"
         style="display:inline;fill:#2b1200;fill-opacity:1;stroke:#000000;stroke-width:4;stroke-dasharray:none;stroke-opacity:1"
         d="m 1896.7304,805.50465 -0.4194,-51.11294 4.2742,-8.23586 8.684,0.21279 3.521,-4.49249 -0.1177,-9.36171 7.7828,1.73582 3.1727,-3.60134 -5.8068,-3.55084 c 0,0 -5.2915,-20.14905 -13.3216,-26.72344 -51.8097,-0.8096 -51.1811,-0.67792 -51.1811,-0.67792 l -0.4317,-56.23516 3.7779,1.42521 c 0,0 5.1775,-0.59318 8.3372,-4.36879 0,0 -17.8368,-28.1326 -17.9743,-33.54794 l 0.5623,-4.68726 -63.3141,0.33561 c -62.9855,-0.0254 -155.2928,-0.0254 -155.2928,-0.0254 l -20.1365,36.05803 13.4682,0.17611 1.813,62.86233 -16.8034,25.31183 19.1004,3.01443 -0.5251,96.36004 -575.3032,-1.69761 -36.0552,27.48132 42.8013,7.11339 0.2952,71.09755 -42.278,-0.70846 c 0,0 -4.8118,16.00475 -11.4729,18.21786 l -148.80481,-0.37854 -0.41611,-18.60152 c 0,0 1.05552,-8.86767 -10.65067,-10.48368 l -155.92924,-4.38417 -13.2595,15.94561 1.71892,23.67262 -318.96565,-2.76983 c 0,0 -3.14106,-2.73776 -2.64056,-6.73024 0.5005,-3.99247 -4.63655,-13.42461 -4.63655,-13.42461 L 95.52998,928.73826 c 0,0 4.99864,6.46676 -10.394342,20.28793 l -1.333254,5.08866 31.748786,54.06075 c 0,0 25.14542,33.9634 35.18091,35.9028 0,0 95.26626,74.7452 81.80401,103.4174 M 1896.7304,805.50465 c 0,0 1.0363,11.22618 12.2987,13.43164 11.2623,2.20546 33.3426,36.56871 33.3426,36.56871 l -36.1916,2.10803 -0.075,32.406 c -27.0654,11.70426 -28.2547,56.03449 -28.2547,56.03449 l 295.8121,-2.07619 68.725,-115.52171 c 0,0 113.5659,1.6104 116.5465,2.22822 2.9806,0.61782 16.2434,19.78837 16.2434,19.78837 l -12.0021,11.91592 1.3716,49.88141 231.8228,-122.82203 c 105.1813,-14.74554 -231.8228,122.82203 355.0427,28.17325 -5.1699,0.41429 -27.0591,78.15489 -26.0544,90.88094 1.0047,12.72605 -1.9709,169.8404 -1.9709,169.8404 0,0 0,0.9638 -1.5837,114.7567 0,0 -19.8659,135.5198 -25.9205,143.8136 -6.0547,8.2939 -22.8251,26.0146 -27.4734,27.0159 -4.6483,1.0013 -44.6576,9.9023 -56.2097,10.731 -11.5521,0.8288 -111.1486,7.9675 -123.131,8.0624 -11.9824,0.095 -2370.3062,3.004 -2370.3062,3.004 0,0 -3.22084,-138.088 -86.22651,-238.2299" /><rect
         style="display:inline;opacity:1;fill:url(#linearGradient29924);fill-opacity:1;stroke:none;stroke-width:0.786389;stroke-dasharray:none;stroke-opacity:1"
         id="rect24123"
         width="845.24463"
         height="21.167177"
         x="1059.1097"
         y="861.09033"
         ry="9.5845652"
         rx="12.157372"
         clip-path="url(#clipPath165)" /><rect
         style="display:inline;fill:#ff9955;fill-opacity:1;stroke:#000000;stroke-width:4.00843;stroke-opacity:1"
         id="rect11325"
         width="849.43579"
         height="72.008202"
         x="1057.4915"
         y="859.15564"
         ry="14.297366"
         clip-path="url(#clipPath161)" /><g
         id="g30019"
         style="display:inline"><ellipse
           style="opacity:1;fill:#0000ff;fill-opacity:1;stroke:#ff0000;stroke-width:4;stroke-opacity:1"
           id="path11457"
           cx="1787.8247"
           cy="890.33173"
           rx="14.605135"
           ry="14.608279" /><ellipse
           style="display:inline;fill:#0000ff;fill-opacity:1;stroke:#ff0000;stroke-width:4;stroke-opacity:1"
           id="path11457-3"
           cx="1660.1841"
           cy="890.33173"
           rx="14.605135"
           ry="14.608279" /><ellipse
           style="display:inline;fill:#0000ff;fill-opacity:1;stroke:#ff0000;stroke-width:4;stroke-opacity:1"
           id="path11457-6"
           cx="1521.0508"
           cy="890.33173"
           rx="14.605135"
           ry="14.608279" /><ellipse
           style="display:inline;fill:#0000ff;fill-opacity:1;stroke:#ff0000;stroke-width:4;stroke-opacity:1"
           id="path11457-0"
           cx="1392.9036"
           cy="890.33173"
           rx="14.605135"
           ry="14.608279" /><ellipse
           style="display:inline;fill:#0000ff;fill-opacity:1;stroke:#ff0000;stroke-width:4;stroke-opacity:1"
           id="path11457-62"
           cx="1271.9221"
           cy="890.33173"
           rx="14.605135"
           ry="14.608279" /><ellipse
           style="display:inline;fill:#0000ff;fill-opacity:1;stroke:#ff0000;stroke-width:4;stroke-opacity:1"
           id="path11457-61"
           cx="1147.9518"
           cy="890.33173"
           rx="14.605135"
           ry="14.608279" /></g><path
         id="path159"
         style="display:inline;fill:none;fill-opacity:1;stroke:#000000;stroke-width:4;stroke-dasharray:none;stroke-opacity:1"
         d="m 1896.7304,805.50465 -0.4194,-51.11294 4.2742,-8.23586 8.684,0.21279 3.521,-4.49249 -0.1177,-9.36171 7.7828,1.73582 3.1727,-3.60134 -5.8068,-3.55084 c 0,0 -5.2915,-20.14905 -13.3216,-26.72344 -51.8097,-0.8096 -51.1811,-0.67792 -51.1811,-0.67792 l -0.4317,-56.23516 3.7779,1.42521 c 0,0 5.1775,-0.59318 8.3372,-4.36879 0,0 -17.8368,-28.1326 -17.9743,-33.54794 l 0.5623,-4.68726 -63.3141,0.33561 c -62.9855,-0.0254 -155.2928,-0.0254 -155.2928,-0.0254 l -20.1365,36.05803 13.4682,0.17611 1.813,62.86233 -16.8034,25.31183 19.1004,3.01443 -0.5251,96.36004 -575.3032,-1.69761 -36.0552,27.48132 42.8013,7.11339 0.2952,71.09755 -42.278,-0.70846 c 0,0 -4.8118,16.00475 -11.4729,18.21786 l -148.80481,-0.37854 -0.41611,-18.60152 c 0,0 1.05552,-8.86767 -10.65067,-10.48368 l -155.92924,-4.38417 -13.2595,15.94561 1.71892,23.67262 -318.96565,-2.76983 c 0,0 -3.14106,-2.73776 -2.64056,-6.73024 0.5005,-3.99247 -4.63655,-13.42461 -4.63655,-13.42461 L 95.52998,928.73826 c 0,0 4.99864,6.46676 -10.394342,20.28793 l -1.333254,5.08866 31.748786,54.06075 c 0,0 25.14542,33.9634 35.18091,35.9028 0,0 95.26626,74.7452 81.80401,103.4174 M 1896.7304,805.50465 c 0,0 1.0363,11.22618 12.2987,13.43164 11.2623,2.20546 33.3426,36.56871 33.3426,36.56871 l -36.1916,2.10803 -0.075,32.406 c -27.0654,11.70426 -28.2547,56.03449 -28.2547,56.03449 l 295.8121,-2.07619 68.725,-115.52171 c 0,0 113.5659,1.6104 116.5465,2.22822 2.9806,0.61782 16.2434,19.78837 16.2434,19.78837 l -12.0021,11.91592 1.3716,49.88141 231.8228,-122.82203 c 105.1813,-14.74554 -231.8228,122.82203 355.0427,28.17325 -5.1699,0.41429 -27.0591,78.15489 -26.0544,90.88094 1.0047,12.72605 -1.9709,169.8404 -1.9709,169.8404 0,0 0,0.9638 -1.5837,114.7567 0,0 -19.8659,135.5198 -25.9205,143.8136 -6.0547,8.2939 -22.8251,26.0146 -27.4734,27.0159 -4.6483,1.0013 -44.6576,9.9023 -56.2097,10.731 -11.5521,0.8288 -111.1486,7.9675 -123.131,8.0624 -11.9824,0.095 -2370.3062,3.004 -2370.3062,3.004 0,0 -3.22084,-138.088 -86.22651,-238.2299" /></g><g
       id="layer2"
       style="display:inline;image-rendering:auto"><path
         style="fill:#084945;fill-opacity:1;stroke:#ff0000;stroke-width:4;stroke-dasharray:none;stroke-opacity:1"
         d="m 1359.4937,697.50274 c -0.018,-27.24379 -33.1989,-55.92741 -33.1989,-55.92741 0,0 -33.1809,28.68362 -33.1989,55.92741 -0.018,27.6728 33.1989,56.8094 33.1989,56.8094 0,0 33.2173,-29.1366 33.1989,-56.8094 z"
         id="path5342" /><rect
         style="opacity:1;fill:#f2b149;fill-opacity:1;stroke:#000000;stroke-width:8;stroke-dasharray:none;stroke-opacity:1"
         id="bridgeRect"
         width="523.90131"
         height="174.89667"
         x="1633.6409"
         y="385.71692"
         ry="3.9372747" /><rect
         style="display:inline;fill:#f2b149;fill-opacity:1;stroke:#000000;stroke-width:8;stroke-dasharray:none;stroke-opacity:1;image-rendering:auto"
         id="quartersRect"
         width="523.90131"
         height="174.89667"
         x="2194.4907"
         y="905.4397"
         ry="3.9372747" /><rect
         style="display:inline;fill:#f2b149;fill-opacity:1;stroke:#000000;stroke-width:8;stroke-dasharray:none;stroke-opacity:1;image-rendering:auto"
         id="galleyRect"
         width="523.90131"
         height="174.89667"
         x="1659.7117"
         y="1180.8702"
         ry="3.9372747" /><rect
         style="display:inline;fill:#f2b149;fill-opacity:1;stroke:#000000;stroke-width:8;stroke-dasharray:none;stroke-opacity:1;image-rendering:auto"
         id="sickbayRect"
         width="523.90131"
         height="174.89667"
         x="578.72241"
         y="1029.795"
         ry="3.9372747" /><rect
         style="display:inline;fill:#f2b149;fill-opacity:1;stroke:#000000;stroke-width:7;stroke-dasharray:none;stroke-opacity:1;image-rendering:auto"
         id="deckRect"
         width="523.90131"
         height="174.89667"
         x="165.14301"
         y="704.67053"
         ry="3.9372747" /><g
         id="g2710"><rect
           style="fill:#80bdb9;fill-opacity:1;stroke:#000000;stroke-width:4;stroke-dasharray:none;stroke-opacity:1"
           id="rect7359-3"
           width="118.03072"
           height="117.36794"
           x="2014.957"
           y="477.79187"
           ry="14.297366"
           rx="0" /><rect
           style="fill:#80bdb9;fill-opacity:1;stroke:#000000;stroke-width:4;stroke-dasharray:none;stroke-opacity:1"
           id="rect7359-6"
           width="118.03072"
           height="117.36794"
           x="2014.7551"
           y="346.43738"
           ry="14.297366"
           rx="0" /><rect
           style="fill:#80bdb9;fill-opacity:1;stroke:#000000;stroke-width:4;stroke-dasharray:none;stroke-opacity:1"
           id="rect7359-7"
           width="118.03072"
           height="117.36794"
           x="2042.3658"
           y="1146.8751"
           ry="14.297366"
           rx="0" /><rect
           style="fill:#80bdb9;fill-opacity:1;stroke:#000000;stroke-width:4;stroke-dasharray:none;stroke-opacity:1"
           id="rect7359-5"
           width="118.03072"
           height="117.36794"
           x="2043.0929"
           y="1269.9414"
           ry="14.297366"
           rx="0" /><rect
           style="fill:#80bdb9;fill-opacity:1;stroke:#000000;stroke-width:4;stroke-dasharray:none;stroke-opacity:1"
           id="rect7359-35"
           width="118.03072"
           height="117.36794"
           x="2582.4023"
           y="865.09418"
           ry="14.297366"
           rx="0" /><rect
           style="fill:#80bdb9;fill-opacity:1;stroke:#000000;stroke-width:4;stroke-dasharray:none;stroke-opacity:1"
           id="rect7359-62"
           width="118.03072"
           height="117.36794"
           x="2579.1177"
           y="992.91376"
           ry="14.297366"
           rx="0" /><rect
           style="fill:#80bdb9;fill-opacity:1;stroke:#000000;stroke-width:4;stroke-dasharray:none;stroke-opacity:1"
           id="rect7359-9"
           width="118.03072"
           height="117.36794"
           x="553.94794"
           y="669.71979"
           ry="14.297366"
           rx="0" /><rect
           style="fill:#80bdb9;fill-opacity:1;stroke:#000000;stroke-width:4;stroke-dasharray:none;stroke-opacity:1"
           id="rect7359-1"
           width="118.03072"
           height="117.36794"
           x="554.89362"
           y="795.01483"
           ry="14.297366"
           rx="0" /><rect
           style="fill:#80bdb9;fill-opacity:1;stroke:#000000;stroke-width:4;stroke-dasharray:none;stroke-opacity:1"
           id="rect7359-2"
           width="118.03072"
           height="117.36794"
           x="968.47906"
           y="996.48395"
           ry="14.297366"
           rx="0" /><rect
           style="fill:#80bdb9;fill-opacity:1;stroke:#000000;stroke-width:4;stroke-dasharray:none;stroke-opacity:1"
           id="rect7359-70"
           width="118.03072"
           height="117.36794"
           x="967.77631"
           y="1120.2279"
           ry="14.297366"
           rx="0" /><rect
           style="display:inline;fill:#80bdb9;fill-opacity:1;stroke:#000000;stroke-width:4;stroke-dasharray:none;stroke-opacity:1;image-rendering:auto"
           id="rect7359"
           width="118.03072"
           height="117.36794"
           x="1368.9755"
           y="637.90222"
           ry="14.297366"
           rx="0" /></g></g></g></svg>
